<?xml version="1.0" standalone="no"?>
<!DOCTYPE svg PUBLIC "-//W3C//DTD SVG 20010904//EN"
 "http://www.w3.org/TR/2001/REC-SVG-20010904/DTD/svg10.dtd">
<svg version="1.0" xmlns="http://www.w3.org/2000/svg"
 width="1208.000000pt" height="1208.000000pt" viewBox="0 0 1208.000000 1208.000000"
 preserveAspectRatio="xMidYMid meet">
<metadata>
Created by potrace 1.14, written by Peter Selinger 2001-2017
</metadata>
<g transform="translate(0.000000,1208.000000) scale(0.100000,-0.100000)"
fill="#000000" stroke="none">
<path d="M4547 12014 c-1 -1 -33 -4 -72 -8 -99 -9 -248 -45 -330 -81 -227 -98
-390 -225 -529 -410 -83 -111 -171 -285 -190 -377 -3 -13 -10 -39 -16 -58 -6
-19 -13 -51 -16 -70 -3 -19 -7 -46 -11 -60 -9 -37 -10 -9703 -1 -9780 15 -129
22 -162 60 -275 20 -59 86 -205 97 -215 3 -3 12 -16 19 -30 34 -67 126 -175
227 -269 63 -58 234 -174 275 -186 14 -4 30 -11 35 -15 16 -13 147 -60 172
-62 13 -2 23 -5 23 -9 0 -3 6 -6 13 -7 6 0 24 -3 40 -6 67 -14 86 -17 147 -23
89 -9 2999 -8 3080 0 84 9 111 13 152 23 18 4 35 8 38 9 3 0 43 14 90 29 229
77 441 232 587 428 133 180 205 356 238 588 10 65 10 9660 1 9755 -5 44 -10
91 -12 105 -8 70 -88 301 -106 308 -4 2 -8 10 -8 18 0 21 -86 159 -128 204
-13 14 -30 36 -39 50 -22 35 -166 163 -238 211 -50 33 -167 99 -185 104 -3 1
-23 10 -45 20 -22 9 -44 18 -50 20 -5 1 -36 9 -67 19 -31 9 -70 19 -85 22 -15
2 -39 7 -53 11 -14 3 -43 8 -65 10 -36 4 -3044 10 -3048 7z"/>
</g>
</svg>
